<svg id="type" xmlns="http://www.w3.org/2000/svg" viewBox="0 0 135 135" width="135px" height="135px" ><defs><style>.cls-1{fill:#fff;}.cls-2{fill:#d98766;}</style></defs><title>DigitalRGB_Bronze_135px</title><circle class="cls-1" cx="67.5" cy="67.5" r="67.5"/><path class="cls-2" d="M71.85,83.23l-5.69,22.92a.59.59,0,0,1-1.13-.28L63.75,82.34,51.86,89.62a.58.58,0,0,1-.69-.91L57,79.63,28.9,82.57a.59.59,0,0,1-.27-1.14L50,72.66l-20-3.29a.58.58,0,0,1,.17-1.15L56.3,66.64l-13.42-26a.59.59,0,0,1,.15-.77.58.58,0,0,1,.78.07L65.14,60.7l5.57-35.64a.59.59,0,0,1,1.17.06L73.07,61l7.35-7.81a.58.58,0,0,1,.71-.12.57.57,0,0,1,.29.65L81.27,62,103,52.09a.59.59,0,0,1,.63,1l-22,17.59L97,79.09a.59.59,0,0,1-.35,1.1l-15.93-.4,16.48,24.48a46.74,46.74,0,1,0-3.33,2.48Z" transform="translate(0 0)"/><path d="M52.93,127.3l.16-.77,3.68-3a1.68,1.68,0,0,0,.61-1,1.09,1.09,0,0,0-1-1.41,1.19,1.19,0,0,0-1.51,1.06L54,122a2.07,2.07,0,0,1,2.58-1.69,2.13,2.13,0,0,1,1.61,1.2,1.92,1.92,0,0,1,.1,1.2,2.37,2.37,0,0,1-.93,1.42l-3.1,2.57,3.21.65-.17.83Z" transform="translate(0 0)"/><path d="M64.32,128.43a2.35,2.35,0,0,1-3.21-.25c-.68-.81-.73-1.85-.62-3.28s.31-2.47,1.12-3.17a2.38,2.38,0,0,1,3.2.24c.69.82.74,1.88.63,3.3S65.12,127.73,64.32,128.43Zm-.24-6a1.41,1.41,0,0,0-1.83-.14c-.68.55-.74,1.63-.81,2.63s-.18,2.08.4,2.72a1.29,1.29,0,0,0,.89.41,1.28,1.28,0,0,0,.94-.27c.68-.55.74-1.63.82-2.63S64.67,123.12,64.08,122.48Z" transform="translate(0 0)"/><path d="M68.3,129l0-.78,2.82-3.85a1.64,1.64,0,0,0,.36-1.08,1.1,1.1,0,0,0-1.28-1.14,1.18,1.18,0,0,0-1.19,1.4l-.94,0a2.06,2.06,0,0,1,2.08-2.27,2.14,2.14,0,0,1,1.86.77,1.92,1.92,0,0,1,.4,1.13,2.49,2.49,0,0,1-.56,1.61l-2.37,3.25,3.27-.16,0,.85Z" transform="translate(0 0)"/><path d="M79.31,127.37a2.11,2.11,0,0,1-1.47.89,2.17,2.17,0,0,1-1.69-.35c-.86-.62-1.16-1.62-1.4-3s-.29-2.46.32-3.33a2.38,2.38,0,0,1,3.16-.54c.86.62,1.16,1.63,1.41,3S79.92,126.5,79.31,127.37Zm-1.66-5.71a1.33,1.33,0,0,0-1-.18,1.23,1.23,0,0,0-.84.49c-.53.7-.32,1.76-.15,2.74s.32,2.06,1,2.55a1.33,1.33,0,0,0,1,.18,1.36,1.36,0,0,0,.85-.49c.52-.7.32-1.76.15-2.75S78.37,122.14,77.65,121.66Z" transform="translate(0 0)"/><path d="M26.85,102.78l-.55.74a2.46,2.46,0,0,1,2.19.77,2.93,2.93,0,0,1,.84,2,4.15,4.15,0,0,1-1.63,2.88,4.11,4.11,0,0,1-2.95,1.43,2.9,2.9,0,0,1-2-.92,3,3,0,0,1-.87-2.17,2.27,2.27,0,0,1,.62-1.49l.69.72a1.42,1.42,0,0,0-.37.82,1.87,1.87,0,0,0,.58,1.5,1.93,1.93,0,0,0,1.37.6,3.51,3.51,0,0,0,2.25-1.2,3.62,3.62,0,0,0,1.34-2.21,1.84,1.84,0,0,0-.53-1.37,1.93,1.93,0,0,0-1.33-.64,2.64,2.64,0,0,0-1.85.84l1.39,1.48-.64.62-2-2.11,3-2.81Z" transform="translate(0 0)"/><path d="M23.34,98a2.61,2.61,0,0,1-.82,4l-4,2.74-.54-.79,4-2.75c1-.69,1.37-1.56.62-2.64a1.71,1.71,0,0,0-2.69-.35l-4,2.75-.54-.78,3.95-2.74A2.6,2.6,0,0,1,23.34,98Z" transform="translate(0 0)"/><path d="M20.29,93.27l-6.7,3.58L13.14,96l6.7-3.58Z" transform="translate(0 0)"/><path d="M16,85.64a2.85,2.85,0,0,1,1.44,1.57l1,2.46-7.06,2.78L10.4,90a2.85,2.85,0,0,1,0-2.13,3.94,3.94,0,0,1,2.45-2A4,4,0,0,1,16,85.64Zm-4.81,2.59a1.89,1.89,0,0,0,0,1.44l.62,1.58,5.43-2.15-.62-1.57a1.89,1.89,0,0,0-1-1.06,3.38,3.38,0,0,0-2.47.27A3.33,3.33,0,0,0,11.21,88.23Z" transform="translate(0 0)"/><path d="M15.68,82.1,8.29,83.85,7.12,78.91l.85-.2,1,4,2.26-.53-.84-3.53.88-.2L12.05,82l2.56-.6-.95-4,.85-.2Z" transform="translate(0 0)"/><path d="M13.15,70.41a3.1,3.1,0,0,1,.95,2.08,3.05,3.05,0,0,1-.53,2.23,2.52,2.52,0,0,1-1.73,1l-.09-1a1.73,1.73,0,0,0,1.14-.65,2.13,2.13,0,0,0,.34-1.49,2,2,0,0,0-.57-1.37,1.13,1.13,0,0,0-.92-.3c-.59,0-1,.47-1.1,1.38,0,.42-.05.8-.07,1.21a2,2,0,0,1-3.38,1.68,3,3,0,0,1-.38-4,2.27,2.27,0,0,1,1.55-.87l.09,1a1.65,1.65,0,0,0-.91.46,1.75,1.75,0,0,0-.4,1.38,1.7,1.7,0,0,0,.65,1.3,1.2,1.2,0,0,0,.85.23,1.12,1.12,0,0,0,1-1.22c0-.44.05-.86.08-1.28a2.17,2.17,0,0,1,2-2.3A2,2,0,0,1,13.15,70.41Z" transform="translate(0 0)"/><path d="M7.07,65.07l6.7.21,0,1L7,66,7,68.29l-.89,0,.17-5.48.89,0Z" transform="translate(0 0)"/><path d="M14.6,57.54l-1.87.36-.47,3.26L14,62l-.14,1L6.68,59.25l.16-1.11,7.9-1.58ZM7.7,58.85l3.71,1.89.39-2.66Z" transform="translate(0 0)"/><path d="M16.47,50.38,13,50.86l-.59,2,3,.88-.27.92L7.93,52.54l.84-2.85A2.54,2.54,0,0,1,10,48a2.14,2.14,0,0,1,1.65-.14,2.08,2.08,0,0,1,1.27,1,2.27,2.27,0,0,1,.26,1l3.63-.52Zm-6.86-.45L9,51.87l2.56.76.57-1.94c.25-.87.08-1.58-.84-1.86S9.87,49.07,9.61,49.93Z" transform="translate(0 0)"/><path d="M20.78,39.37a2.63,2.63,0,0,1-.3,2L19,44.07l-6.68-3.63,1.45-2.66a2.56,2.56,0,0,1,1.5-1.3,1.82,1.82,0,0,1,1.35.17,1.74,1.74,0,0,1,.95,1.77,1.89,1.89,0,0,1,2.21-.24A2,2,0,0,1,20.78,39.37Zm-6.24-1.19-1,1.85,2.1,1.14,1-1.88a1.13,1.13,0,0,0-.42-1.74A1.21,1.21,0,0,0,14.54,38.18Zm2.85,1.49-1,1.9,2.32,1.26,1-1.87a1.31,1.31,0,0,0-.43-2A1.37,1.37,0,0,0,17.39,39.67Z" transform="translate(0 0)"/><path d="M25.72,33.58l-3.39-.75-1.27,1.68,2.53,1.9-.57.76-6.08-4.56,1.79-2.38a2.61,2.61,0,0,1,1.7-1.14,2.13,2.13,0,0,1,1.59.45,2,2,0,0,1,.86,1.36A2.29,2.29,0,0,1,22.76,32l3.59.79Zm-6.28-2.82-1.22,1.62L20.35,34l1.22-1.62c.54-.72.63-1.45-.14-2S20,30,19.44,30.76Z" transform="translate(0 0)"/><path d="M30.7,27.34a3,3,0,0,1-2.91,2.88,4.14,4.14,0,0,1-2.89-1.54,4.14,4.14,0,0,1-1.51-2.91,3,3,0,0,1,2.92-2.88,4.11,4.11,0,0,1,2.89,1.55A4.14,4.14,0,0,1,30.7,27.34Zm-4.4-3.51a2,2,0,0,0-2,1.94A3.52,3.52,0,0,0,25.6,28a3.52,3.52,0,0,0,2.19,1.29,2,2,0,0,0,2-1.94,3.5,3.5,0,0,0-1.26-2.21A3.51,3.51,0,0,0,26.3,23.83Z" transform="translate(0 0)"/><path d="M37.49,22.84,30.9,20.08,34.47,25l-.75.54-4.44-6.15.87-.62,6.6,2.78-3.58-5,.74-.54,4.44,6.14Z" transform="translate(0 0)"/><path d="M40.37,21l-.44-.85L41.23,13l-3.9,2-.4-.79,4.9-2.53.44.86L41,19.67l4-2.05.41.79Z" transform="translate(0 0)"/><path d="M47.56,17.49,45,10.34l4.78-1.69.29.83-3.88,1.37L47,13l3.41-1.2.3.85-3.41,1.2.86,2.47L52.05,15l.29.83Z" transform="translate(0 0)"/><path d="M63,13.25a3.53,3.53,0,0,1-4.29.55,2.46,2.46,0,0,1-1-1.71l1-.12a1.73,1.73,0,0,0,.67,1.13,2.12,2.12,0,0,0,1.51.29,2,2,0,0,0,1.35-.6,1.11,1.11,0,0,0,.27-.93c-.07-.59-.5-1-1.41-1.06l-1.21,0A2,2,0,0,1,57.64,9a2.11,2.11,0,0,1,.47-1.57,3,3,0,0,1,3.94-.5A2.28,2.28,0,0,1,63,8.47l-1,.12a1.62,1.62,0,0,0-.49-.9A2,2,0,0,0,58.82,8a1.25,1.25,0,0,0-.21.86,1.13,1.13,0,0,0,1.26.92c.43,0,.85,0,1.27,0a2.18,2.18,0,0,1,2.36,1.89A2,2,0,0,1,63,13.25Z" transform="translate(0 0)"/><path d="M65.92,13.7,66,6.11l5.07.08v.88L67,7l0,2.31,3.62.06v.9l-3.62-.06,0,2.62L71,12.9l0,.88Z" transform="translate(0 0)"/><path d="M77.84,14.67l-.35-1.88-3.26-.49L73.36,14l-1-.15,3.78-7.12,1.1.17,1.54,7.91ZM76.57,7.76l-1.91,3.7,2.66.4Z" transform="translate(0 0)"/><path d="M80.45,15.26,82.51,8l.92.26-1.82,6.45,3.51,1-.24.85Z" transform="translate(0 0)"/><path d="M92.94,19.32a2.92,2.92,0,0,1-2.19-.16,2.89,2.89,0,0,1-1.49-1.62,4.1,4.1,0,0,1,.47-3.24A4.11,4.11,0,0,1,92,11.91a3,3,0,0,1,3.68,1.77,4.1,4.1,0,0,1-.47,3.24A4.12,4.12,0,0,1,92.94,19.32ZM94.77,14a2,2,0,0,0-2.49-1.2,3.55,3.55,0,0,0-1.66,1.94,3.53,3.53,0,0,0-.48,2.5,1.92,1.92,0,0,0,1,1.11,1.89,1.89,0,0,0,1.49.09,3.48,3.48,0,0,0,1.66-1.94A3.52,3.52,0,0,0,94.77,14Z" transform="translate(0 0)"/><path d="M100,16.42l-1.37,2.06,3,2-.5.75-3-2L96.23,22l-.8-.52,4.21-6.34,4.1,2.72-.49.73Z" transform="translate(0 0)"/><path d="M109.51,24l-4.62,4.86-.7-.67,4.62-4.86-1.63-1.55.61-.65,4,3.78-.61.65Z" transform="translate(0 0)"/><path d="M110.8,35.56l1.58-3.09-1.31-1.64-2.47,2-.59-.75,5.93-4.73,1.85,2.33a2.58,2.58,0,0,1,.68,1.92,2.16,2.16,0,0,1-.84,1.43,2,2,0,0,1-1.53.49,2.22,2.22,0,0,1-1-.38l-1.67,3.27Zm4.3-5.37-1.25-1.58-2.09,1.66L113,31.86c.56.7,1.25,1,2,.37S115.67,30.9,115.1,30.19Z" transform="translate(0 0)"/><path d="M115,42.26l1.24-1.44L114.61,38l-1.86.38-.49-.83L120.17,36l.57,1-5.2,6.16Zm4.58-5.33-4.08.84,1.36,2.32Z" transform="translate(0 0)"/><path d="M118.05,49.06l4.27-5.73-5.66,2.27-.34-.85,7-2.83.4,1-4.28,5.74,5.67-2.29.35.86-7,2.83Z" transform="translate(0 0)"/><path d="M121,57.22A3.5,3.5,0,0,1,120,53a2.55,2.55,0,0,1,1.59-1.21l.22,1a1.78,1.78,0,0,0-1,.8,2.12,2.12,0,0,0-.13,1.52,2,2,0,0,0,.75,1.28,1.09,1.09,0,0,0,1,.17c.58-.13,1-.61.9-1.51,0-.43-.06-.8-.09-1.21a2.07,2.07,0,0,1,1.5-2.44,2.13,2.13,0,0,1,1.61.31,3,3,0,0,1,.92,3.86,2.32,2.32,0,0,1-1.42,1.08l-.22-1a1.51,1.51,0,0,0,.84-.58,1.71,1.71,0,0,0,.21-1.42,1.76,1.76,0,0,0-.82-1.2,1.25,1.25,0,0,0-.88-.11,1.12,1.12,0,0,0-.78,1.35c0,.43.06.85.1,1.27a2.18,2.18,0,0,1-1.62,2.55A2,2,0,0,1,121,57.22Z" transform="translate(0 0)"/><path d="M124.85,65.12a2.53,2.53,0,0,1-.79-1.8l-.15-1.87-2.93.24-.08-.95,7.56-.62.23,2.81a2.48,2.48,0,0,1-.52,2,2.26,2.26,0,0,1-1.55.71A2.31,2.31,0,0,1,124.85,65.12Zm3-2.14-.15-1.84-2.91.24.16,1.85a1.32,1.32,0,0,0,1.61,1.4C127.5,64.55,127.9,63.92,127.83,63Z" transform="translate(0 0)"/><path d="M121.09,72.43l1.82-.52.17-3.3-1.76-.7,0-1L128.82,70l-.06,1.12L121,73.42Zm6.75-1.94L124,69l-.13,2.69Z" transform="translate(0 0)"/><path d="M119.86,80l3.37-.8.41-2.05-3.1-.61.18-.94,7.45,1.47L127.59,80a2.56,2.56,0,0,1-1,1.76,2.16,2.16,0,0,1-1.63.29,2.06,2.06,0,0,1-1.36-.86,2.38,2.38,0,0,1-.35-1l-3.57.85Zm6.87-.18.39-2-2.61-.51-.39,2c-.18.88.06,1.58,1,1.77S126.56,80.68,126.73,79.8Z" transform="translate(0 0)"/><path d="M118.87,83.62,126,86.18,124.28,91l-.83-.29,1.4-3.88L122.68,86l-1.23,3.4-.84-.31,1.22-3.39-2.46-.89L118,88.68l-.82-.3Z" transform="translate(0 0)"/><path d="M113.89,94.78l7.15-.36-5.37-2.92.44-.81,6.68,3.63-.51.94-7.17.35,5.39,2.93-.44.81-6.68-3.63Z" transform="translate(0 0)"/><path d="M109.62,102a3,3,0,0,1,.59-2.11,2.91,2.91,0,0,1,1.89-1.15,5.59,5.59,0,0,1,5,3.78,2.92,2.92,0,0,1-.59,2.13,2.89,2.89,0,0,1-1.85,1.14,2.58,2.58,0,0,1-1.83-.45l.59-.79a1.62,1.62,0,0,0,1.1.31,1.83,1.83,0,0,0,1.27-.76,2,2,0,0,0,.38-1.45,5,5,0,0,0-3.93-3,1.92,1.92,0,0,0-1.3.75,1.88,1.88,0,0,0-.37,1.45,1.71,1.71,0,0,0,.62,1l-.6.79A2.7,2.7,0,0,1,109.62,102Z" transform="translate(0 0)"/><path d="M108,107.44l-2.22-2.14.67-.7,2.22,2.15,5,1.31-.75.77-4-1.08,1.22,3.93-.71.73Z" transform="translate(0 0)"/></svg>